<?xml version="1.0" encoding="iso-8859-1"?>
<!-- Generator: Adobe Illustrator 19.0.0, SVG Export Plug-In . SVG Version: 6.00 Build 0)  -->
<svg version="1.1" id="Layer_1" xmlns="http://www.w3.org/2000/svg" xmlns:xlink="http://www.w3.org/1999/xlink" x="0px" y="0px"
	 viewBox="0 0 507.168 507.168" style="enable-background:new 0 0 507.168 507.168;" xml:space="preserve">
<g>
	<g>
		<path d="M368.804,38.31c-46.848,0-89.452,23.064-115.212,62.008C227.836,61.374,185.22,38.31,138.384,38.31
			C62.08,38.31,0,100.402,0,176.738c0,69.304,43.66,141.764,126.264,209.576c62.048,50.924,124.96,81.84,125.592,82.144
			c0.544,0.268,1.14,0.4,1.732,0.4s1.188-0.128,1.736-0.4c0.628-0.304,63.544-31.22,125.584-82.144
			c82.604-67.808,126.26-140.268,126.26-209.576C507.172,100.402,445.1,38.31,368.804,38.31z"/>
	</g>
</g>
<g>
</g>
<g>
</g>
<g>
</g>
<g>
</g>
<g>
</g>
<g>
</g>
<g>
</g>
<g>
</g>
<g>
</g>
<g>
</g>
<g>
</g>
<g>
</g>
<g>
</g>
<g>
</g>
<g>
</g>
</svg>
